<svg id="visual" viewBox="0 0 675 900" width="675" height="900" xmlns="http://www.w3.org/2000/svg" xmlns:xlink="http://www.w3.org/1999/xlink" version="1.1"><rect x="0" y="0" width="675" height="900" fill="#DAE2B6"></rect><defs><linearGradient id="grad1_0" x1="0%" y1="100%" x2="100%" y2="0%"><stop offset="30%" stop-color="#646255" stop-opacity="1"></stop><stop offset="70%" stop-color="#646255" stop-opacity="1"></stop></linearGradient></defs><defs><linearGradient id="grad1_1" x1="0%" y1="100%" x2="100%" y2="0%"><stop offset="30%" stop-color="#646255" stop-opacity="1"></stop><stop offset="70%" stop-color="#dae2b6" stop-opacity="1"></stop></linearGradient></defs><defs><linearGradient id="grad2_0" x1="0%" y1="100%" x2="100%" y2="0%"><stop offset="30%" stop-color="#646255" stop-opacity="1"></stop><stop offset="70%" stop-color="#646255" stop-opacity="1"></stop></linearGradient></defs><defs><linearGradient id="grad2_1" x1="0%" y1="100%" x2="100%" y2="0%"><stop offset="30%" stop-color="#dae2b6" stop-opacity="1"></stop><stop offset="70%" stop-color="#646255" stop-opacity="1"></stop></linearGradient></defs><g transform="translate(675, 900)"><path d="M-451 0C-458.8 -36.8 -466.6 -73.6 -453.3 -103.5C-440.1 -133.3 -405.9 -156.2 -388.3 -187C-370.8 -217.8 -369.9 -256.7 -350.3 -279.3C-330.6 -302 -292.2 -308.4 -268.1 -336.2C-244 -363.9 -234.3 -413 -207.5 -430.8C-180.6 -448.6 -136.5 -435.2 -99 -433.8C-61.6 -432.5 -30.8 -443.3 0 -454L0 0Z" fill="#9f9f83"></path><path d="M-225.5 0C-229.4 -18.4 -233.3 -36.8 -226.7 -51.7C-220.1 -66.7 -202.9 -78.1 -194.2 -93.5C-185.4 -108.9 -185 -128.3 -175.1 -139.7C-165.3 -151 -146.1 -154.2 -134.1 -168.1C-122 -182 -117.2 -206.5 -103.7 -215.4C-90.3 -224.3 -68.2 -217.6 -49.5 -216.9C-30.8 -216.3 -15.4 -221.6 0 -227L0 0Z" fill="#646255"></path></g><g transform="translate(0, 0)"><path d="M474 0C474.4 36.1 474.8 72.3 466.1 106.4C457.5 140.5 439.7 172.7 420.8 202.6C401.8 232.6 381.5 260.4 359.6 286.8C337.8 313.2 314.2 338.2 289.3 362.8C264.4 387.4 238 411.6 207 429.8C175.9 447.9 140.3 460 105 460.2C69.8 460.4 34.9 448.7 0 437L0 0Z" fill="#9f9f83"></path><path d="M237 0C237.2 18.1 237.4 36.1 233.1 53.2C228.7 70.3 219.9 86.3 210.4 101.3C200.9 116.3 190.8 130.2 179.8 143.4C168.9 156.6 157.1 169.1 144.6 181.4C132.2 193.7 119 205.8 103.5 214.9C88 224 70.1 230 52.5 230.1C34.9 230.2 17.4 224.3 0 218.5L0 0Z" fill="#646255"></path></g></svg>