<svg id="visual" viewBox="0 0 900 675" width="900" height="675" xmlns="http://www.w3.org/2000/svg" xmlns:xlink="http://www.w3.org/1999/xlink" version="1.1"><rect x="0" y="0" width="900" height="675" fill="#DAE2B6"></rect><defs><linearGradient id="grad1_0" x1="25%" y1="100%" x2="100%" y2="0%"><stop offset="23.333333333333336%" stop-color="#646255" stop-opacity="1"></stop><stop offset="76.66666666666666%" stop-color="#646255" stop-opacity="1"></stop></linearGradient></defs><defs><linearGradient id="grad1_1" x1="25%" y1="100%" x2="100%" y2="0%"><stop offset="23.333333333333336%" stop-color="#646255" stop-opacity="1"></stop><stop offset="76.66666666666666%" stop-color="#dae2b6" stop-opacity="1"></stop></linearGradient></defs><defs><linearGradient id="grad2_0" x1="0%" y1="100%" x2="75%" y2="0%"><stop offset="23.333333333333336%" stop-color="#646255" stop-opacity="1"></stop><stop offset="76.66666666666666%" stop-color="#646255" stop-opacity="1"></stop></linearGradient></defs><defs><linearGradient id="grad2_1" x1="0%" y1="100%" x2="75%" y2="0%"><stop offset="23.333333333333336%" stop-color="#dae2b6" stop-opacity="1"></stop><stop offset="76.66666666666666%" stop-color="#646255" stop-opacity="1"></stop></linearGradient></defs><g transform="translate(900, 675)"><path d="M-477 0C-454.1 -31.3 -431.2 -62.7 -422.1 -96.4C-413.1 -130 -417.8 -166 -407.2 -196.1C-396.7 -226.2 -370.8 -250.5 -350.3 -279.3C-329.7 -308.1 -314.4 -341.4 -287.4 -360.4C-260.4 -379.4 -221.7 -384.1 -188.3 -391C-154.9 -398 -126.8 -407.2 -96.4 -422.1C-65.9 -437 -32.9 -457.6 0 -478.1L0 0Z" fill="#9f9f83"></path><path d="M-238.5 0C-227.1 -15.7 -215.6 -31.3 -211.1 -48.2C-206.5 -65 -208.9 -83 -203.6 -98.1C-198.3 -113.1 -185.4 -125.3 -175.1 -139.7C-164.8 -154.1 -157.2 -170.7 -143.7 -180.2C-130.2 -189.7 -110.9 -192 -94.2 -195.5C-77.5 -199 -63.4 -203.6 -48.2 -211.1C-32.9 -218.5 -16.5 -228.8 0 -239.1L0 0Z" fill="#646255"></path></g><g transform="translate(0, 0)"><path d="M441 0C457.3 36.9 473.7 73.8 466.1 106.4C458.6 139 427.2 167.2 401.8 193.5C376.5 219.8 357.2 244.3 337.8 269.3C318.3 294.4 298.7 320.1 276.8 347.1C255 374.1 230.8 402.4 200.5 416.2C170.1 430.1 133.5 429.5 99 433.8C64.6 438.2 32.3 447.6 0 457L0 0Z" fill="#9f9f83"></path><path d="M220.5 0C228.7 18.5 236.8 36.9 233.1 53.2C229.3 69.5 213.6 83.6 200.9 96.8C188.2 109.9 178.6 122.1 168.9 134.7C159.2 147.2 149.3 160.1 138.4 173.6C127.5 187.1 115.4 201.2 100.2 208.1C85 215 66.7 214.7 49.5 216.9C32.3 219.1 16.1 223.8 0 228.5L0 0Z" fill="#646255"></path></g></svg>