<svg id="visual" viewBox="0 0 1920 1080" width="1920" height="1080" xmlns="http://www.w3.org/2000/svg" xmlns:xlink="http://www.w3.org/1999/xlink" version="1.1"><rect x="0" y="0" width="1920" height="1080" fill="#DAE2B6"></rect><defs><linearGradient id="grad1_0" x1="43.8%" y1="0%" x2="100%" y2="100%"><stop offset="14.444444444444446%" stop-color="#646255" stop-opacity="1"></stop><stop offset="85.55555555555554%" stop-color="#646255" stop-opacity="1"></stop></linearGradient></defs><defs><linearGradient id="grad1_1" x1="43.8%" y1="0%" x2="100%" y2="100%"><stop offset="14.444444444444446%" stop-color="#646255" stop-opacity="1"></stop><stop offset="85.55555555555554%" stop-color="#dae2b6" stop-opacity="1"></stop></linearGradient></defs><defs><linearGradient id="grad2_0" x1="0%" y1="0%" x2="56.3%" y2="100%"><stop offset="14.444444444444446%" stop-color="#646255" stop-opacity="1"></stop><stop offset="85.55555555555554%" stop-color="#646255" stop-opacity="1"></stop></linearGradient></defs><defs><linearGradient id="grad2_1" x1="0%" y1="0%" x2="56.3%" y2="100%"><stop offset="14.444444444444446%" stop-color="#dae2b6" stop-opacity="1"></stop><stop offset="85.55555555555554%" stop-color="#646255" stop-opacity="1"></stop></linearGradient></defs><g transform="translate(1920, 0)"><path d="M0 972C-129.9 878.8 -259.8 785.5 -413.5 716.2C-567.2 646.9 -744.7 601.4 -841.8 486C-938.8 370.6 -955.4 185.3 -972 0L0 0Z" fill="#9f9f83"></path><path d="M0 486C-64.9 439.4 -129.9 392.8 -206.7 358.1C-283.6 323.4 -372.4 300.7 -420.9 243C-469.4 185.3 -477.7 92.7 -486 0L0 0Z" fill="#646255"></path></g><g transform="translate(0, 1080)"><path d="M0 -972C152 -917.1 304.1 -862.2 455 -788.1C605.9 -713.9 755.8 -620.6 841.8 -486C927.8 -351.4 949.9 -175.7 972 0L0 0Z" fill="#9f9f83"></path><path d="M0 -486C76 -458.6 152 -431.1 227.5 -394C303 -357 377.9 -310.3 420.9 -243C463.9 -175.7 474.9 -87.9 486 0L0 0Z" fill="#646255"></path></g></svg>